PathFileType	4	(X/Y/Z)	C:/Users/opensim2020/Desktop/walking_exp_matlab/subject02_walking05_straight_02.trc																																																																																																																												
DataRate	CameraRate	NumFrames	NumMarkers	Units	OrigDataRate	OrigDataStartFrame	OrigNumFrames																																																																																																																								
100	100	4	42	mm	100	1396	243																																																																																																																								
Frame#	Time	LFHD			RFHD			LBHD			RBHD			C7			T10			CLAV			STRN			RBAK			LSHO			LUPA			LELB			LFRM			LWRA			LWRB			LFIN			RSHO			RUPA			RELB			RFRM			RWRA			RWRB			RFIN			LASI			RASI			LPSI			RPSI			LTHI			LKNE			LTIB			LANK			LHEE			LTOE			RTHI			RKNE			RTIB			RANK			RHEE			RTOE			*39			*40			*41		
		X1	Y1	Z1	X2	Y2	Z2	X3	Y3	Z3	X4	Y4	Z4	X5	Y5	Z5	X6	Y6	Z6	X7	Y7	Z7	X8	Y8	Z8	X9	Y9	Z9	X10	Y10	Z10	X11	Y11	Z11	X12	Y12	Z12	X13	Y13	Z13	X14	Y14	Z14	X15	Y15	Z15	X16	Y16	Z16	X17	Y17	Z17	X18	Y18	Z18	X19	Y19	Z19	X20	Y20	Z20	X21	Y21	Z21	X22	Y22	Z22	X23	Y23	Z23	X24	Y24	Z24	X25	Y25	Z25	X26	Y26	Z26	X27	Y27	Z27	X28	Y28	Z28	X29	Y29	Z29	X30	Y30	Z30	X31	Y31	Z31	X32	Y32	Z32	X33	Y33	Z33	X34	Y34	Z34	X35	Y35	Z35	X36	Y36	Z36	X37	Y37	Z37	X38	Y38	Z38	X39	Y39	Z39	X40	Y40	Z40	X41	Y41	Z41	X42	Y42	Z42
																																																																																																																															
31	0.3	-903.45618	1741.56592	-1501.41504	-908.25012	1719.67773	-1359.81897	-1006.76678	1632.85107	-1520.14331	-1022.57489	1607.00476	-1379.87378	-1042.72144	1503.56897	-1441.93298	-1090.52295	1229.77515	-1435.17688	-902.07745	1438.76367	-1462.04578	-848.26184	1266.18945	-1458.98376	-1094.39648	1331.66528	-1377.53406	-980.73846	1482.04602	-1626.11609	-974.73425	1294.13013	-1728.22742	-943.70428	1161.78271	-1770.09131	-875.83453	1049.63	-1800.43396	-763.75153	970.12952	-1793.32727	-809.71411	948.71497	-1818.26624	-761.57458	909.47888	-1838.04504	-949.25934	1466.88391	-1260.76489	-979.15894	1275.104	-1178.86243	-972.68097	1132.01965	-1159.71472	-954.60126	1016.25781	-1130.99438	-915.23792	885.00732	-1137.88367	-964.30164	887.86127	-1109.28455	-933.56732	821.97906	-1100.94446	-871.83661	964.44177	-1588.78467	-841.12085	964.33929	-1333.0697	-1070.21448	1010.60516	-1478.823	-1062.84753	1013.36243	-1364.47681	-1015.27716	674.61603	-1638.25317	-1096.05542	490.82062	-1615.28809	-1231.01746	348.93118	-1609.28418	-1323.81482	140.54846	-1587.64795	-1354.91089	128.6788	-1531.16956	-1202.39771	37.92032	-1618.22595	-846.55237	667.89746	-1251.51636	-776.28943	473.75748	-1294.73315	-779.13489	285.62112	-1284.04602	-771.47412	93.47086	-1317.40833	-803.60986	41.68023	-1372.52197	-617.49475	43.98226	-1308.72278	-1025.08069	1772.43201	-1417.68469	-2845.17285	1033.91846	3360.38818	NaN	NaN	NaN
32	0.31	-894.56482	1742.87378	-1498.34277	-899.4657	1720.69568	-1356.53088	-997.67169	1633.99927	-1517.35291	-1013.91809	1608.03857	-1377.37109	-1033.67883	1504.31836	-1439.7074	-1080.41516	1230.30981	-1433.37585	-892.63452	1440.1615	-1459.54565	-838.06232	1267.82898	-1456.2666	-1083.88733	1331.73108	-1375.24341	-971.22406	1483.36206	-1623.77441	-966.99866	1294.67041	-1725.04858	-937.39008	1161.51721	-1765.60669	-872.2428	1048.27063	-1796.44019	-761.4057	966.45282	-1789.79138	-808.1062	945.76837	-1814.02136	-761.21661	905.45905	-1834.1991	-940.53278	1468.07214	-1258.47974	-968.90735	1275.9314	-1177.16541	-962.58661	1132.98608	-1157.98193	-944.48877	1017.06287	-1129.5542	-905.06061	886.19354	-1135.35828	-954.50543	888.953	-1107.2251	-923.87195	822.91693	-1098.67371	-860.05872	965.65698	-1585.1593	-829.72882	966.6474	-1330.05933	-1058.448	1011.59888	-1476.59009	-1051.67798	1015.16888	-1361.67883	-1002.40228	675.22498	-1636.31494	-1080.67139	491.76904	-1615.70972	-1218.98877	353.26755	-1609.85388	-1317.47156	147.562	-1588.86316	-1347.85278	137.30661	-1531.96082	-1202.02856	37.92861	-1618.47266	-833.47961	669.9201	-1249.18445	-767.18213	473.98361	-1293.68115	-773.4411	285.8382	-1283.29712	-769.95386	93.88167	-1317.10571	-803.16199	41.87918	-1372.46863	-616.53687	43.28454	-1308.46924	-1016.46088	1773.46252	-1414.80151	-2845.17896	1033.77148	3360.26758	NaN	NaN	NaN
33	0.32	-885.61829	1744.16687	-1494.98486	-890.91644	1721.57739	-1353.31079	-988.61572	1635.33521	-1514.58618	-1004.96967	1608.87183	-1374.45178	-1024.71533	1505.07715	-1437.45544	-1070.30054	1230.86316	-1431.42798	-883.19354	1441.4292	-1456.6134	-828.06805	1269.65259	-1453.70935	-1073.65076	1332.03186	-1372.84412	-961.64063	1484.59741	-1621.14014	-959.11047	1295.17847	-1721.55627	-931.21979	1161.49805	-1761.26721	-868.46906	1046.52258	-1791.76868	-759.47992	962.51276	-1785.8009	-806.72284	942.50671	-1809.37036	-761.20313	901.2395	-1829.84314	-931.95166	1469.38513	-1256.21912	-959.98291	1276.99048	-1174.74951	-952.16412	1134.07703	-1156.06604	-934.65674	1018.47925	-1126.91736	-894.66229	887.45477	-1132.73218	-944.08069	890.19287	-1104.93677	-913.68909	824.07111	-1096.23376	-848.27704	966.81964	-1581.27087	-818.48767	968.92773	-1326.9884	-1046.93311	1012.74811	-1474.43408	-1040.58093	1016.66766	-1359.0188	-989.15314	675.58734	-1634.40869	-1064.16895	492.3511	-1616.44226	-1205.65027	357.61411	-1610.4082	-1309.72461	155.01105	-1590.30017	-1339.53723	146.5015	-1533.02405	-1201.52551	38.14283	-1618.6283	-820.31464	671.29034	-1246.98633	-759.54352	473.97531	-1292.49133	-769.0993	285.74652	-1282.63501	-769.10541	93.8313	-1317.14856	-803.12964	42.00621	-1372.86426	-616.08862	42.71956	-1308.08948	-1007.61896	1774.45532	-1411.61731	-2845.8877	1033.81226	3357.17505	NaN	NaN	NaN
34	0.33	-876.4632	1745.48462	-1491.5481	-882.25531	1722.7738	-1350.31921	-979.55023	1636.83386	-1511.83801	-996.20093	1610.06799	-1371.81714	-1015.85693	1505.90442	-1435.30505	-1060.15613	1231.50452	-1429.24866	-874.00555	1443.16821	-1454.34924	-817.91107	1271.51343	-1451.02234	-1064.4707	1332.8009	-1371.21106	-952.39685	1485.98865	-1618.86292	-951.06134	1295.68433	-1717.97913	-925.2146	1161.58215	-1756.93127	-865.36969	1045.30286	-1787.49963	-757.98676	958.55328	-1781.72839	-805.91431	939.68866	-1804.81775	-761.427	896.79333	-1824.97327	-923.58813	1470.85413	-1253.83301	-950.25574	1278.23267	-1172.47876	-941.76495	1135.35449	-1154.09912	-923.6759	1019.94702	-1125.39124	-884.05701	888.81458	-1130.85327	-933.45087	891.66199	-1102.95044	-902.93506	825.50549	-1093.98145	-836.82904	968.07788	-1577.22131	-807.35272	971.08154	-1323.78918	-1035.71741	1013.86658	-1472.28455	-1029.63403	1017.95087	-1356.52014	-975.33997	675.5592	-1632.70703	-1046.44019	492.3562	-1617.37732	-1190.88806	361.68961	-1610.95386	-1300.43713	162.5369	-1591.66858	-1329.6593	155.68697	-1533.93884	-1200.42871	38.1563	-1618.35059	-807.73273	672.67487	-1244.4585	-753.07135	473.52158	-1291.21594	-766.2525	285.39877	-1282.34106	-768.43652	93.81177	-1317.28821	-802.8725	41.92145	-1372.48975	-615.5896	42.35501	-1308.32007	-998.77686	1775.83936	-1408.66345	-2845.13232	1033.90381	3360.23145	NaN	NaN	NaN
